<svg height="32" node-id="1" sillyvg="true" template-height="32" template-width="32" version="1.1" viewBox="0 0 32 32" width="32" xmlns="http://www.w3.org/2000/svg" xmlns:xlink="http://www.w3.org/1999/xlink"><defs node-id="103"><linearGradient gradientUnits="objectBoundingBox" id="paint10_linear_31_96" node-id="79" spreadMethod="pad" x1="6.83333" x2="6.83333" y1="10.4" y2="8.6"><stop offset="0.0299084" stop-color="#524049"/><stop offset="1" stop-color="#4a2c42"/></linearGradient><linearGradient gradientUnits="objectBoundingBox" id="paint11_linear_31_96" node-id="82" spreadMethod="pad" x1="25.1667" x2="25.1667" y1="10.4" y2="8.6"><stop offset="0.0299084" stop-color="#524049"/><stop offset="1" stop-color="#4a2c42"/></linearGradient><linearGradient gradientUnits="objectBoundingBox" id="paint12_linear_31_96" node-id="85" spreadMethod="pad" x1="8.5" x2="24" y1="23.5" y2="17"><stop offset="0" stop-color="#dfb6ff"/><stop offset="1" stop-color="#f3eff9"/></linearGradient><linearGradient gradientUnits="objectBoundingBox" id="paint13_linear_31_96" node-id="88" spreadMethod="pad" x1="3" x2="8" y1="22.5" y2="22.5"><stop offset="0" stop-color="#bb8fc3"/><stop offset="1" stop-color="#e1bbff"/></linearGradient><linearGradient gradientUnits="objectBoundingBox" id="paint14_linear_31_96" node-id="91" spreadMethod="pad" x1="1.5" x2="8.5" y1="12.5" y2="17"><stop offset="0" stop-color="#d5a4a9"/><stop offset="1" stop-color="#e3c1ff"/></linearGradient><linearGradient gradientUnits="objectBoundingBox" id="paint15_linear_31_96" node-id="94" spreadMethod="pad" x1="24" x2="30.5" y1="16.5" y2="12.5"><stop offset="0" stop-color="#f3edfa"/><stop offset="1" stop-color="#d7d7d7"/></linearGradient><linearGradient gradientUnits="objectBoundingBox" id="paint16_linear_31_96" node-id="97" spreadMethod="pad" x1="30" x2="25" y1="22.5" y2="22.5"><stop offset="0" stop-color="#e1ccf6"/><stop offset="1" stop-color="#f1e7fa"/></linearGradient><radialGradient cx="0" cy="0" fx="0" fy="0" gradientUnits="objectBoundingBox" id="paint0_radial_31_96" node-id="47" r="1" rev="10" spreadMethod="pad"><stop offset="0" stop-color="#fff478"/><stop offset="0.474827" stop-color="#ffb02e"/><stop offset="1" stop-color="#f70a8d"/></radialGradient><radialGradient cx="0" cy="0" fx="0" fy="0" gradientUnits="objectBoundingBox" id="paint1_radial_31_96" node-id="51" r="1" rev="9" spreadMethod="pad"><stop offset="0" stop-color="#fff478"/><stop offset="0.474827" stop-color="#ffb02e"/><stop offset="1" stop-color="#f70a8d"/></radialGradient><radialGradient cx="0" cy="0" fx="0" fy="0" gradientUnits="objectBoundingBox" id="paint2_radial_31_96" node-id="55" r="1" rev="8" spreadMethod="pad"><stop offset="0.787821" stop-color="#f59639" stop-opacity="0"/><stop offset="0.972509" stop-color="#ff7dce"/></radialGradient><radialGradient cx="0" cy="0" fx="0" fy="0" gradientUnits="objectBoundingBox" id="paint3_radial_31_96" node-id="58" r="1" rev="7" spreadMethod="pad"><stop offset="0.314853" stop-color="#000000" stop-opacity="0"/><stop offset="1" stop-color="#000000"/></radialGradient><radialGradient cx="0" cy="0" fx="0" fy="0" gradientUnits="objectBoundingBox" id="paint4_radial_31_96" node-id="61" r="1" rev="6" spreadMethod="pad"><stop offset="0.507903" stop-color="#7d6133" stop-opacity="0"/><stop offset="1" stop-color="#715b32"/></radialGradient><radialGradient cx="0" cy="0" fx="0" fy="0" gradientUnits="objectBoundingBox" id="paint5_radial_31_96" node-id="64" r="1" rev="5" spreadMethod="pad"><stop offset="0" stop-color="#ffb849"/><stop offset="1" stop-color="#ffb847" stop-opacity="0"/></radialGradient><radialGradient cx="0" cy="0" fx="0" fy="0" gradientUnits="objectBoundingBox" id="paint6_radial_31_96" node-id="67" r="1" rev="4" spreadMethod="pad"><stop offset="0" stop-color="#ffa64b"/><stop offset="0.900412" stop-color="#ffae46" stop-opacity="0"/></radialGradient><radialGradient cx="0" cy="0" fx="0" fy="0" gradientUnits="objectBoundingBox" id="paint7_radial_31_96" node-id="70" r="1" rev="3" spreadMethod="pad"><stop offset="0.185425" stop-color="#000000" stop-opacity="0"/><stop offset="1" stop-color="#000000" stop-opacity="0.4"/></radialGradient><radialGradient cx="0" cy="0" fx="0" fy="0" gradientUnits="objectBoundingBox" id="paint8_radial_31_96" node-id="73" r="1" rev="2" spreadMethod="pad"><stop offset="0" stop-color="#f70a8d" stop-opacity="0.59"/><stop offset="1" stop-color="#ff6dc6" stop-opacity="0"/></radialGradient><radialGradient cx="0" cy="0" fx="0" fy="0" gradientUnits="objectBoundingBox" id="paint9_radial_31_96" node-id="76" r="1" rev="1" spreadMethod="pad"><stop offset="0" stop-color="#f70a8d" stop-opacity="0.59"/><stop offset="1" stop-color="#ff6dc6" stop-opacity="0"/></radialGradient><filter filterUnits="objectBoundingBox" height="7.00012" id="filter0_f_31_96" node-id="31" width="10.0002" x="4.99988" y="8"><feFlood color-interpolation-filters="sRGB" flood-color="#000000" flood-opacity="0" result="BackgroundImageFix"></feFlood><feBlend color-interpolation-filters="sRGB" in="SourceGraphic" in2="BackgroundImageFix" mode="normal" result="shape"></feBlend><feGaussianBlur color-interpolation-filters="sRGB" in="shape" result="effect1_foregroundBlur_31_96" stdDeviation="0.75 0.75"></feGaussianBlur></filter><filter filterUnits="objectBoundingBox" height="7.0002403" id="filter1_f_31_96" node-id="35" width="10.0005" x="15.9998" y="8"><feFlood color-interpolation-filters="sRGB" flood-color="#000000" flood-opacity="0" result="BackgroundImageFix"></feFlood><feBlend color-interpolation-filters="sRGB" in="SourceGraphic" in2="BackgroundImageFix" mode="normal" result="shape"></feBlend><feGaussianBlur color-interpolation-filters="sRGB" in="shape" result="effect1_foregroundBlur_31_96" stdDeviation="0.75 0.75"></feGaussianBlur></filter><filter filterUnits="objectBoundingBox" height="5.75006" id="filter2_f_31_96" node-id="39" width="8.75" x="6.375" y="7.875"><feFlood color-interpolation-filters="sRGB" flood-color="#000000" flood-opacity="0" result="BackgroundImageFix"></feFlood><feBlend color-interpolation-filters="sRGB" in="SourceGraphic" in2="BackgroundImageFix" mode="normal" result="shape"></feBlend><feGaussianBlur color-interpolation-filters="sRGB" in="shape" result="effect1_foregroundBlur_31_96" stdDeviation="0.75 0.75"></feGaussianBlur></filter><filter filterUnits="objectBoundingBox" height="5.75006" id="filter3_f_31_96" node-id="43" width="8.75" x="17.375" y="7.875"><feFlood color-interpolation-filters="sRGB" flood-color="#000000" flood-opacity="0" result="BackgroundImageFix"></feFlood><feBlend color-interpolation-filters="sRGB" in="SourceGraphic" in2="BackgroundImageFix" mode="normal" result="shape"></feBlend><feGaussianBlur color-interpolation-filters="sRGB" in="shape" result="effect1_foregroundBlur_31_96" stdDeviation="0.75 0.75"></feGaussianBlur></filter><clipPath id="clip0_31_96" node-id="100"><path d="M 0.00 0.00 L 32.00 0.00 L 32.00 32.00 L 0.00 32.00 Z" fill="#000000" fill-rule="nonzero" node-id="244" stroke="none" target-height="32" target-width="32" target-x="0" target-y="0"/></clipPath></defs><g clip-path="url(#clip0_31_96)" id="sillyvg_g_0" node-id="248"><path d="M 16.00 30.00 C 25.33 30.00 30.00 23.73 30.00 16.00 C 30.00 8.27 25.33 2.00 16.00 2.00 C 6.66 2.00 2.00 8.27 2.00 16.00 C 2.00 23.73 6.66 30.00 16.00 30.00 Z" fill="url(#paint0_radial_31_96)" fill-rule="nonzero" node-id="250" stroke="none" target-height="27.9978" target-width="27.9978" target-x="2" target-y="2"/><path d="M 16.00 30.00 C 25.33 30.00 30.00 23.73 30.00 16.00 C 30.00 8.27 25.33 2.00 16.00 2.00 C 6.66 2.00 2.00 8.27 2.00 16.00 C 2.00 23.73 6.66 30.00 16.00 30.00 Z" fill="url(#paint1_radial_31_96)" fill-rule="nonzero" node-id="252" stroke="none" target-height="27.9978" target-width="27.9978" target-x="2" target-y="2"/><path d="M 16.00 30.00 C 25.33 30.00 30.00 23.73 30.00 16.00 C 30.00 8.27 25.33 2.00 16.00 2.00 C 6.66 2.00 2.00 8.27 2.00 16.00 C 2.00 23.73 6.66 30.00 16.00 30.00 Z" fill="url(#paint2_radial_31_96)" fill-rule="nonzero" node-id="254" stroke="none" target-height="27.9978" target-width="27.9978" target-x="2" target-y="2"/><path d="M 16.00 30.00 C 25.33 30.00 30.00 23.73 30.00 16.00 C 30.00 8.27 25.33 2.00 16.00 2.00 C 6.66 2.00 2.00 8.27 2.00 16.00 C 2.00 23.73 6.66 30.00 16.00 30.00 Z" fill="url(#paint3_radial_31_96)" fill-opacity="0.6" fill-rule="nonzero" node-id="256" stroke="none" target-height="27.9978" target-width="27.9978" target-x="2" target-y="2"/><path d="M 16.00 30.00 C 25.33 30.00 30.00 23.73 30.00 16.00 C 30.00 8.27 25.33 2.00 16.00 2.00 C 6.66 2.00 2.00 8.27 2.00 16.00 C 2.00 23.73 6.66 30.00 16.00 30.00 Z" fill="url(#paint4_radial_31_96)" fill-rule="nonzero" node-id="258" stroke="none" target-height="27.9978" target-width="27.9978" target-x="2" target-y="2"/><path d="M 16.00 30.00 C 25.33 30.00 30.00 23.73 30.00 16.00 C 30.00 8.27 25.33 2.00 16.00 2.00 C 6.66 2.00 2.00 8.27 2.00 16.00 C 2.00 23.73 6.66 30.00 16.00 30.00 Z" fill="url(#paint5_radial_31_96)" fill-rule="nonzero" node-id="260" stroke="none" target-height="27.9978" target-width="27.9978" target-x="2" target-y="2"/><path d="M 16.00 30.00 C 25.33 30.00 30.00 23.73 30.00 16.00 C 30.00 8.27 25.33 2.00 16.00 2.00 C 6.66 2.00 2.00 8.27 2.00 16.00 C 2.00 23.73 6.66 30.00 16.00 30.00 Z" fill="url(#paint6_radial_31_96)" fill-rule="nonzero" node-id="262" stroke="none" target-height="27.9978" target-width="27.9978" target-x="2" target-y="2"/><path d="M 16.00 30.00 C 25.33 30.00 30.00 23.73 30.00 16.00 C 30.00 8.27 25.33 2.00 16.00 2.00 C 6.66 2.00 2.00 8.27 2.00 16.00 C 2.00 23.73 6.66 30.00 16.00 30.00 Z" fill="url(#paint7_radial_31_96)" fill-rule="nonzero" node-id="264" stroke="none" target-height="27.9978" target-width="27.9978" target-x="2" target-y="2"/><path d="M 7.50 23.00 C 11.09 23.00 14.00 20.09 14.00 16.50 C 14.00 12.91 11.09 10.00 7.50 10.00 C 3.91 10.00 1.00 12.91 1.00 16.50 C 1.00 20.09 3.91 23.00 7.50 23.00 Z" fill="url(#paint8_radial_31_96)" fill-opacity="0.5" fill-rule="nonzero" group-id="1" node-id="268" stroke="none" target-height="13" target-width="13" target-x="1" target-y="10"/><path d="M 24.50 23.00 C 28.09 23.00 31.00 20.09 31.00 16.50 C 31.00 12.91 28.09 10.00 24.50 10.00 C 20.91 10.00 18.00 12.91 18.00 16.50 C 18.00 20.09 20.91 23.00 24.50 23.00 Z" fill="url(#paint9_radial_31_96)" fill-opacity="0.5" fill-rule="nonzero" group-id="2" node-id="273" stroke="none" target-height="13" target-width="13" target-x="18" target-y="10"/><path d="M 7.50 12.50 C 7.50 12.50 7.75 10.50 10.00 10.50 C 12.25 10.50 12.50 12.50 12.50 12.50" fill="none" filter="url(#filter0_f_31_96)" group-id="3" node-id="278" stroke="#9a4609" stroke-linecap="round" stroke-opacity="0.5" stroke-width="2" target-height="2" target-width="5" target-x="7.5" target-y="10.5"/><path d="M 18.50 12.50 C 18.50 12.50 19.00 10.50 21.00 10.50 C 23.00 10.50 23.50 12.50 23.50 12.50" fill="none" filter="url(#filter1_f_31_96)" group-id="4" node-id="283" stroke="#9a4609" stroke-linecap="round" stroke-opacity="0.5" stroke-width="2" target-height="2" target-width="5.000002" target-x="18.5" target-y="10.5"/><path d="M 8.00 12.00 C 8.00 12.00 8.25 10.00 10.50 10.00 C 12.75 10.00 13.00 12.00 13.00 12.00" fill="none" node-id="286" stroke="#43273b" stroke-linecap="round" stroke-width="2" target-height="2" target-width="5" target-x="8" target-y="10"/><path d="M 8.25 11.75 C 8.25 11.75 8.50 9.75 10.75 9.75 C 13.00 9.75 13.25 11.75 13.25 11.75" fill="none" filter="url(#filter2_f_31_96)" group-id="5" node-id="290" stroke="#ffffff" stroke-linecap="round" stroke-opacity="0.26" stroke-width="0.75" target-height="2.000001" target-width="4.999999" target-x="8.25" target-y="9.75"/><path d="M 19.00 12.00 C 19.00 12.00 19.50 10.00 21.50 10.00 C 23.50 10.00 24.00 12.00 24.00 12.00" fill="none" node-id="293" stroke="#43273b" stroke-linecap="round" stroke-width="2" target-height="2" target-width="5" target-x="19" target-y="10"/><path d="M 19.25 11.75 C 19.25 11.75 19.50 9.75 21.75 9.75 C 24.00 9.75 24.25 11.75 24.25 11.75" fill="none" filter="url(#filter3_f_31_96)" group-id="6" node-id="297" stroke="#ffffff" stroke-linecap="round" stroke-opacity="0.26" stroke-width="0.75" target-height="2.000001" target-width="5" target-x="19.25" target-y="9.75"/><path d="M 6.50 9.50 C 6.83 8.50 8.10 6.50 10.50 6.50" fill="none" node-id="300" stroke="url(#paint10_linear_31_96)" stroke-linecap="round" stroke-width="1" target-height="3" target-width="4" target-x="6.5" target-y="6.5"/><path d="M 25.50 9.50 C 25.17 8.50 23.90 6.50 21.50 6.50" fill="none" node-id="302" stroke="url(#paint11_linear_31_96)" stroke-linecap="round" stroke-width="1" target-height="3" target-width="4" target-x="21.500002" target-y="6.5"/><path d="M 8.00 17.56 C 8.00 16.64 8.62 15.84 9.51 15.62 L 14.06 14.49 C 15.33 14.17 16.67 14.17 17.94 14.49 L 22.49 15.62 C 23.38 15.84 24.00 16.64 24.00 17.56 L 24.00 23.61 C 24.00 24.45 23.48 25.19 22.70 25.49 L 21.62 25.89 C 18.00 27.25 14.00 27.25 10.38 25.89 L 9.30 25.49 C 8.52 25.19 8.00 24.45 8.00 23.61 L 8.00 17.56 Z" fill="url(#paint12_linear_31_96)" fill-rule="nonzero" node-id="304" stroke="none" target-height="13.085001" target-width="16" target-x="8" target-y="14.166599"/><path d="M 3.52 23.00 L 9.00 23.00 L 9.00 22.00 L 3.08 22.00 C 3.22 22.34 3.36 22.67 3.52 23.00 Z" fill="url(#paint13_linear_31_96)" fill-rule="evenodd" node-id="306" stroke="none" target-height="1" target-width="5.9201" target-x="3.07996" target-y="22"/><path d="M 2.17 13.52 L 8.23 17.42 L 8.77 16.58 L 2.35 12.45 C 2.28 12.80 2.22 13.16 2.17 13.52 Z" fill="url(#paint14_linear_31_96)" fill-rule="evenodd" node-id="308" stroke="none" target-height="4.967701" target-width="6.6032996" target-x="2.16711" target-y="12.4529"/><path d="M 29.65 12.45 L 23.23 16.58 L 23.77 17.42 L 29.83 13.52 C 29.78 13.16 29.72 12.81 29.65 12.45 Z" fill="url(#paint15_linear_31_96)" fill-rule="evenodd" node-id="310" stroke="none" target-height="4.9664" target-width="6.6012974" target-x="23.2296" target-y="12.454201"/><path d="M 28.92 22.00 L 24.00 22.00 L 24.00 23.00 L 28.47 23.00 C 28.64 22.67 28.78 22.34 28.92 22.00 Z" fill="url(#paint16_linear_31_96)" fill-rule="evenodd" node-id="312" stroke="none" target-height="1" target-width="4.9179" target-x="24" target-y="22"/></g></svg>